<?xml version="1.0" standalone="no"?>
<svg viewBox="0 0 200 200" xmlns="http://www.w3.org/2000/svg">
  <path fill="#24A148" d="M41.5,-71.8C54.7,-64.4,66.8,-55,72.7,-42.7C78.5,-30.4,78.1,-15.2,74.7,-2C71.2,11.2,64.7,22.4,59.1,35.1C53.5,47.8,48.8,62.1,39.1,65.9C29.4,69.7,14.7,63.2,4,56.3C-6.7,49.4,-13.4,42.1,-21.2,37.2C-28.9,32.2,-37.7,29.5,-42.4,23.7C-47,17.9,-47.6,8.9,-46.2,0.8C-44.7,-7.3,-41.2,-14.5,-36.7,-20.7C-32.3,-26.9,-26.9,-32.1,-20.6,-43.5C-14.3,-54.9,-7.2,-72.5,3.5,-78.6C14.2,-84.7,28.4,-79.2,41.5,-71.8Z" transform="translate(100 100)" />
</svg>
